<?xml version="1.0" encoding="UTF-8" standalone="no"?>
<!-- Generator: Adobe Illustrator 19.2.1, SVG Export Plug-In . SVG Version: 6.00 Build 0)  -->

<svg
   xmlns:dc="http://purl.org/dc/elements/1.1/"
   xmlns:cc="http://creativecommons.org/ns#"
   xmlns:rdf="http://www.w3.org/1999/02/22-rdf-syntax-ns#"
   xmlns:svg="http://www.w3.org/2000/svg"
   xmlns="http://www.w3.org/2000/svg"
   xmlns:sodipodi="http://sodipodi.sourceforge.net/DTD/sodipodi-0.dtd"
   xmlns:inkscape="http://www.inkscape.org/namespaces/inkscape"
   version="1.1"
   id="svg2"
   inkscape:version="0.91 r13725"
   sodipodi:docname="loader_2.svg"
   x="0px"
   y="0px"
   viewBox="0 0 50 50"
   style="enable-background:new 0 0 50 50;"
   xml:space="preserve"><metadata
     id="metadata62"><rdf:RDF><cc:Work
         rdf:about=""><dc:format>image/svg+xml</dc:format><dc:type
           rdf:resource="http://purl.org/dc/dcmitype/StillImage" /></cc:Work></rdf:RDF></metadata><defs
     id="defs60" /><sodipodi:namedview
     pagecolor="#ffffff"
     bordercolor="#666666"
     borderopacity="1"
     objecttolerance="10"
     gridtolerance="10"
     guidetolerance="10"
     inkscape:pageopacity="0"
     inkscape:pageshadow="2"
     inkscape:window-width="1376"
     inkscape:window-height="745"
     id="namedview58"
     showgrid="false"
     inkscape:zoom="4.72"
     inkscape:cx="25"
     inkscape:cy="25"
     inkscape:window-x="65"
     inkscape:window-y="24"
     inkscape:window-maximized="0"
     inkscape:current-layer="svg2" /><style
     type="text/css"
     id="style3">
	.st0{fill:#009FE3;}
</style><g
     id="g5"
     transform="matrix(1,0,0,-1,-3.5081385e-8,50.33568)"><sodipodi:namedview
       bordercolor="#666666"
       borderopacity="1.0"
       id="base"
       inkscape:current-layer="layer1"
       inkscape:cx="-85.788439"
       inkscape:cy="23.960553"
       inkscape:document-units="px"
       inkscape:pageopacity="0"
       inkscape:pageshadow="2"
       inkscape:window-height="1056"
       inkscape:window-maximized="1"
       inkscape:window-width="1855"
       inkscape:window-x="65"
       inkscape:window-y="24"
       inkscape:zoom="2.56"
       pagecolor="#ff00ff"
       showborder="true"
       showgrid="false"
       units="px" /><g
       id="g8"><rect
         x="41.099998"
         y="19.700001"
         transform="matrix(1.311349e-7,-1,1,1.311349e-7,19.503,67.3593)"
         class="st0"
         width="4.6999998"
         height="8.5"
         id="rect10"
         style="fill:#009fe3" /><rect
         x="40.700001"
         y="24"
         transform="matrix(0.209,-0.9779,0.9779,0.209,6.5819,64.2346)"
         class="st0"
         width="4.5"
         height="8.1000004"
         id="rect12"
         style="fill:#009fe3" /><rect
         x="39.599998"
         y="28"
         transform="matrix(0.4052,-0.9142,0.9142,0.4052,-4.2988,57.1329)"
         class="st0"
         width="4.4000001"
         height="7.8000002"
         id="rect14"
         style="fill:#009fe3" /><rect
         x="37.700001"
         y="31.6"
         transform="matrix(0.5804,-0.8143,0.8143,0.5804,-12.0481,47.2239)"
         class="st0"
         width="4.1999998"
         height="7.5"
         id="rect16"
         style="fill:#009fe3" /><rect
         x="35.200001"
         y="34.700001"
         transform="matrix(0.7302,-0.6833,0.6833,0.7302,-16.0984,35.7496)"
         class="st0"
         width="4.0999999"
         height="7.1999998"
         id="rect18"
         style="fill:#009fe3" /><rect
         x="32.099998"
         y="37.200001"
         transform="matrix(0.8513,-0.5246,0.5246,0.8513,-16.2548,23.9277)"
         class="st0"
         width="3.9000001"
         height="6.9000001"
         id="rect20"
         style="fill:#009fe3" /><rect
         x="28.6"
         y="39.099998"
         transform="matrix(0.9398,-0.3418,0.3418,0.9398,-12.6452,12.9835)"
         class="st0"
         width="3.7"
         height="6.5"
         id="rect22"
         style="fill:#009fe3" /><rect
         x="24.799999"
         y="40.200001"
         transform="matrix(0.9901,-0.1402,0.1402,0.9901,-5.8162,4.1562)"
         class="st0"
         width="3.5999999"
         height="6.1999998"
         id="rect24"
         style="fill:#009fe3" /><rect
         x="19.5"
         y="41.799999"
         transform="matrix(0.07038745,-0.9975,0.9975,0.07038745,-22.559,62.7915)"
         class="st0"
         width="5.9000001"
         height="3.4000001"
         id="rect26"
         style="fill:#009fe3" /><rect
         x="15.6"
         y="41.200001"
         transform="matrix(0.2763,-0.9611,0.9611,0.2763,-27.8205,48.6272)"
         class="st0"
         width="5.5999999"
         height="3.3"
         id="rect28"
         style="fill:#009fe3" /><rect
         x="12.1"
         y="39.700001"
         transform="matrix(0.4662,-0.8847,0.8847,0.4662,-28.7003,35.0296)"
         class="st0"
         width="5.3000002"
         height="3.0999999"
         id="rect30"
         style="fill:#009fe3" /><rect
         x="8.8999996"
         y="37.599998"
         transform="matrix(0.6333,-0.7739,0.7739,0.6333,-26.0972,23.1632)"
         class="st0"
         width="4.9000001"
         height="3"
         id="rect32"
         style="fill:#009fe3" /><rect
         x="6.3000002"
         y="34.900002"
         transform="matrix(0.7739,-0.6333,0.6333,0.7739,-21.0687,13.6757)"
         class="st0"
         width="4.5999999"
         height="2.8"
         id="rect34"
         style="fill:#009fe3" /><rect
         x="4.3000002"
         y="31.700001"
         transform="matrix(0.8847,-0.4662,0.4662,0.8847,-14.6702,6.8156)"
         class="st0"
         width="4.3000002"
         height="2.5999999"
         id="rect36"
         style="fill:#009fe3" /><rect
         x="3"
         y="28.1"
         transform="matrix(0.9611,-0.2763,0.2763,0.9611,-7.92,2.5115)"
         class="st0"
         width="4"
         height="2.5"
         id="rect38"
         style="fill:#009fe3" /><rect
         x="2.4000001"
         y="24.200001"
         transform="matrix(0.9975,-0.07038716,0.07038716,0.9975,-1.7723,0.3613)"
         class="st0"
         width="3.5999999"
         height="2.3"
         id="rect40"
         style="fill:#009fe3" /><rect
         x="3.3"
         y="19.5"
         transform="matrix(0.1402,-0.9901,0.9901,0.1402,-17.1728,22.5286)"
         class="st0"
         width="2.2"
         height="3.3"
         id="rect42"
         style="fill:#009fe3" /><rect
         x="4.4000001"
         y="15.7"
         transform="matrix(0.3418,-0.9398,0.9398,0.3418,-12.6516,16.3784)"
         class="st0"
         width="2"
         height="3"
         id="rect44"
         style="fill:#009fe3" /><rect
         x="6.1999998"
         y="12.3"
         transform="matrix(0.5246,-0.8513,0.8513,0.5246,-8.2468,12.5288)"
         class="st0"
         width="1.9"
         height="2.7"
         id="rect46"
         style="fill:#009fe3" /><rect
         x="8.6000004"
         y="9.3000002"
         transform="matrix(0.6833,-0.7302,0.7302,0.6833,-4.682,10.2571)"
         class="st0"
         width="1.7"
         height="2.4000001"
         id="rect48"
         style="fill:#009fe3" /><rect
         x="11.7"
         y="6.9000001"
         transform="matrix(0.8143,-0.5804,0.5804,0.8143,-2.2992,8.6919)"
         class="st0"
         width="1.5"
         height="2"
         id="rect50"
         style="fill:#009fe3" /><rect
         x="15.2"
         y="5.0999999"
         transform="matrix(0.9142,-0.4052,0.4052,0.9142,-1.0627,6.9428)"
         class="st0"
         width="1.4"
         height="1.7"
         id="rect52"
         style="fill:#009fe3" /><rect
         x="19.1"
         y="4"
         transform="matrix(0.9779,-0.209,0.209,0.9779,-0.5561,4.22)"
         class="st0"
         width="1.2"
         height="1.4"
         id="rect54"
         style="fill:#009fe3" /><rect
         x="23.299999"
         y="3.8"
         transform="matrix(-1,-3.348077e-8,3.348077e-8,-1,47.6217,8.6158)"
         class="st0"
         width="1.1"
         height="1.1"
         id="rect56"
         style="fill:#009fe3" /></g></g></svg>