<?xml version="1.0" encoding="UTF-8" standalone="no"?>
<!-- Generator: Adobe Illustrator 19.2.1, SVG Export Plug-In . SVG Version: 6.00 Build 0)  -->

<svg
   xmlns:dc="http://purl.org/dc/elements/1.1/"
   xmlns:cc="http://creativecommons.org/ns#"
   xmlns:rdf="http://www.w3.org/1999/02/22-rdf-syntax-ns#"
   xmlns:svg="http://www.w3.org/2000/svg"
   xmlns="http://www.w3.org/2000/svg"
   xmlns:sodipodi="http://sodipodi.sourceforge.net/DTD/sodipodi-0.dtd"
   xmlns:inkscape="http://www.inkscape.org/namespaces/inkscape"
   version="1.1"
   id="svg2"
   inkscape:version="0.91 r13725"
   sodipodi:docname="loader.svg"
   x="0px"
   y="0px"
   viewBox="0 0 50 50"
   style="enable-background:new 0 0 50 50;"
   xml:space="preserve"><metadata
     id="metadata74"><rdf:RDF><cc:Work
         rdf:about=""><dc:format>image/svg+xml</dc:format><dc:type
           rdf:resource="http://purl.org/dc/dcmitype/StillImage" /><dc:title></dc:title></cc:Work></rdf:RDF></metadata><defs
     id="defs72" /><style
     type="text/css"
     id="style3">
	.st0{fill:#009FE3;}
</style><sodipodi:namedview
     bordercolor="#666666"
     borderopacity="1.0"
     id="base"
     inkscape:current-layer="svg2"
     inkscape:cx="-151.41344"
     inkscape:cy="23.960553"
     inkscape:document-units="px"
     inkscape:pageopacity="0"
     inkscape:pageshadow="2"
     inkscape:window-height="1056"
     inkscape:window-maximized="1"
     inkscape:window-width="1855"
     inkscape:window-x="65"
     inkscape:window-y="24"
     inkscape:zoom="2.56"
     pagecolor="#ffffff"
     showborder="true"
     showgrid="false"
     units="px" /><g
     id="g6"
     transform="matrix(1,0,0,-1,-6.554856e-7,49.968585)"><rect
       x="41.099998"
       y="21"
       transform="matrix(1.31134e-7,-1,1,1.31134e-7,18.3512,68.2961)"
       class="st0"
       width="4.4000001"
       height="7.9000001"
       id="rect8"
       style="fill:#009fe3" /><rect
       x="41"
       y="23.9"
       transform="matrix(0.1559,-0.9878,0.9878,0.1559,8.8682,66.0845)"
       class="st0"
       width="4.3000002"
       height="7.9000001"
       id="rect10"
       style="fill:#009fe3" /><rect
       x="40.400002"
       y="26.6"
       transform="matrix(0.3061,-0.952,0.952,0.3061,0.3277,61.6356)"
       class="st0"
       width="4.1999998"
       height="7.9000001"
       id="rect12"
       style="fill:#009fe3" /><rect
       x="39.400002"
       y="29.200001"
       transform="matrix(0.4468,-0.8946,0.8946,0.4468,-6.7588,55.382)"
       class="st0"
       width="4"
       height="7.9000001"
       id="rect14"
       style="fill:#009fe3" /><rect
       x="38"
       y="31.6"
       transform="matrix(0.5751,-0.8181,0.8181,0.5751,-12.0543,47.8079)"
       class="st0"
       width="3.9000001"
       height="7.9000001"
       id="rect16"
       style="fill:#009fe3" /><rect
       x="36.400002"
       y="33.700001"
       transform="matrix(0.6895,-0.7243,0.7243,0.6895,-15.3626,39.3982)"
       class="st0"
       width="3.8"
       height="7.9000001"
       id="rect18"
       style="fill:#009fe3" /><rect
       x="34.400002"
       y="35.5"
       transform="matrix(0.7886,-0.6149,0.6149,0.7886,-16.5915,30.6257)"
       class="st0"
       width="3.7"
       height="7.9000001"
       id="rect20"
       style="fill:#009fe3" /><rect
       x="32.200001"
       y="37"
       transform="matrix(0.8711,-0.491,0.491,0.8711,-15.7352,21.9605)"
       class="st0"
       width="3.5999999"
       height="7.9000001"
       id="rect22"
       style="fill:#009fe3" /><rect
       x="29.700001"
       y="38.200001"
       transform="matrix(0.9352,-0.3543,0.3543,0.9352,-12.8833,13.8834)"
       class="st0"
       width="3.5"
       height="7.9000001"
       id="rect24"
       style="fill:#009fe3" /><rect
       x="27.1"
       y="39"
       transform="matrix(0.9784,-0.2068,0.2068,0.9784,-8.2529,6.8825)"
       class="st0"
       width="3.4000001"
       height="7.9000001"
       id="rect26"
       style="fill:#009fe3" /><rect
       x="24.299999"
       y="39.299999"
       transform="matrix(0.9986,-0.05225549,0.05225549,0.9986,-2.2266,1.4155)"
       class="st0"
       width="3.3"
       height="7.9000001"
       id="rect28"
       style="fill:#009fe3" /><rect
       x="19.1"
       y="41.599998"
       transform="matrix(0.1043,-0.9945,0.9945,0.1043,-22.3331,61.6286)"
       class="st0"
       width="7.9000001"
       height="3.2"
       id="rect30"
       style="fill:#009fe3" /><rect
       x="16.299999"
       y="41.200001"
       transform="matrix(0.2569,-0.9664,0.9664,0.2569,-26.2136,51.3046)"
       class="st0"
       width="7.9000001"
       height="3.0999999"
       id="rect32"
       style="fill:#009fe3" /><rect
       x="13.7"
       y="40.299999"
       transform="matrix(0.4012,-0.916,0.916,0.4012,-27.7136,41.1708)"
       class="st0"
       width="7.9000001"
       height="3"
       id="rect34"
       style="fill:#009fe3" /><rect
       x="11.3"
       y="39.099998"
       transform="matrix(0.5338,-0.8456,0.8456,0.5338,-27.1527,31.7344)"
       class="st0"
       width="7.9000001"
       height="2.9000001"
       id="rect36"
       style="fill:#009fe3" /><rect
       x="9.1000004"
       y="37.5"
       transform="matrix(0.653,-0.7574,0.7574,0.653,-24.9228,23.3422)"
       class="st0"
       width="7.9000001"
       height="2.7"
       id="rect38"
       style="fill:#009fe3" /><rect
       x="7.0999999"
       y="35.599998"
       transform="matrix(0.7574,-0.653,0.653,0.7574,-21.4339,16.2028)"
       class="st0"
       width="7.9000001"
       height="2.5999999"
       id="rect40"
       style="fill:#009fe3" /><rect
       x="5.5"
       y="33.5"
       transform="matrix(0.8456,-0.5338,0.5338,0.8456,-17.0892,10.4162)"
       class="st0"
       width="7.9000001"
       height="2.5"
       id="rect42"
       style="fill:#009fe3" /><rect
       x="4.1999998"
       y="31.1"
       transform="matrix(0.916,-0.4012,0.4012,0.916,-12.2804,5.9938)"
       class="st0"
       width="7.9000001"
       height="2.4000001"
       id="rect44"
       style="fill:#009fe3" /><rect
       x="3.3"
       y="28.5"
       transform="matrix(0.9664,-0.2569,0.2569,0.9664,-7.3872,2.8614)"
       class="st0"
       width="7.9000001"
       height="2.3"
       id="rect46"
       style="fill:#009fe3" /><rect
       x="2.8"
       y="25.799999"
       transform="matrix(0.9945,-0.1043,0.1043,0.9945,-2.769,0.8497)"
       class="st0"
       width="7.9000001"
       height="2.2"
       id="rect48"
       style="fill:#009fe3" /><rect
       x="5.5999999"
       y="20"
       transform="matrix(0.05225584,-0.9986,0.9986,0.05225584,-17.6474,29.4017)"
       class="st0"
       width="2.0999999"
       height="7.9000001"
       id="rect50"
       style="fill:#009fe3" /><rect
       x="6"
       y="17.200001"
       transform="matrix(0.2068,-0.9784,0.9784,0.2068,-15.1209,23.6701)"
       class="st0"
       width="2"
       height="7.9000001"
       id="rect52"
       style="fill:#009fe3" /><rect
       x="6.9000001"
       y="14.5"
       transform="matrix(0.3543,-0.9352,0.9352,0.3543,-12.2253,19.2483)"
       class="st0"
       width="1.9"
       height="7.9000001"
       id="rect54"
       style="fill:#009fe3" /><rect
       x="8.1000004"
       y="12"
       transform="matrix(0.491,-0.8711,0.8711,0.491,-9.3432,15.9678)"
       class="st0"
       width="1.8"
       height="7.9000001"
       id="rect56"
       style="fill:#009fe3" /><rect
       x="9.6999998"
       y="9.8000002"
       transform="matrix(0.6149,-0.7886,0.7886,0.6149,-6.7605,13.5663)"
       class="st0"
       width="1.7"
       height="7.9000001"
       id="rect58"
       style="fill:#009fe3" /><rect
       x="11.6"
       y="7.6999998"
       transform="matrix(0.7243,-0.6895,0.6895,0.7243,-4.6556,11.729)"
       class="st0"
       width="1.6"
       height="7.9000001"
       id="rect60"
       style="fill:#009fe3" /><rect
       x="13.7"
       y="6"
       transform="matrix(0.8181,-0.5751,0.5751,0.8181,-3.0985,10.1197)"
       class="st0"
       width="1.4"
       height="7.9000001"
       id="rect62"
       style="fill:#009fe3" /><rect
       x="16.1"
       y="4.5999999"
       transform="matrix(0.8946,-0.4468,0.4468,0.8946,-2.0517,8.4065)"
       class="st0"
       width="1.3"
       height="7.9000001"
       id="rect64"
       style="fill:#009fe3" /><rect
       x="18.700001"
       y="3.5999999"
       transform="matrix(0.952,-0.3061,0.3061,0.952,-1.369,6.288)"
       class="st0"
       width="1.2"
       height="7.9000001"
       id="rect66"
       style="fill:#009fe3" /><rect
       x="21.5"
       y="2.9000001"
       transform="matrix(0.9878,-0.1559,0.1559,0.9878,-0.7985,3.5284)"
       class="st0"
       width="1.1"
       height="7.9000001"
       id="rect68"
       style="fill:#009fe3" /><rect
       x="24.5"
       y="2.7"
       transform="matrix(-1,-1.748459e-7,1.748459e-7,-1,49.9648,13.2623)"
       class="st0"
       width="1"
       height="7.9000001"
       id="rect70"
       style="fill:#009fe3" /></g></svg>