<?xml version="1.0" encoding="utf-8"?>
<!-- Generator: Adobe Illustrator 19.2.1, SVG Export Plug-In . SVG Version: 6.00 Build 0)  -->
<svg version="1.1"
	 id="svg2" inkscape:version="0.91 r13725" sodipodi:docname="mute.svg" xmlns:cc="http://creativecommons.org/ns#" xmlns:dc="http://purl.org/dc/elements/1.1/" xmlns:inkscape="http://www.inkscape.org/namespaces/inkscape" xmlns:rdf="http://www.w3.org/1999/02/22-rdf-syntax-ns#" xmlns:sodipodi="http://sodipodi.sourceforge.net/DTD/sodipodi-0.dtd" xmlns:svg="http://www.w3.org/2000/svg"
	 xmlns="http://www.w3.org/2000/svg" xmlns:xlink="http://www.w3.org/1999/xlink" x="0px" y="0px" viewBox="0 0 25 25"
	 style="enable-background:new 0 0 25 25;" xml:space="preserve">
<style type="text/css">
	.st0{fill:#009FE3;}
	.st1{fill:none;stroke:#000000;stroke-width:2;stroke-miterlimit:10;}
</style>
<sodipodi:namedview  bordercolor="#666666" borderopacity="1.0" id="base" inkscape:current-layer="layer1" inkscape:cx="77.347596" inkscape:cy="92.765208" inkscape:document-units="px" inkscape:pageopacity="0" inkscape:pageshadow="2" inkscape:window-height="1056" inkscape:window-maximized="1" inkscape:window-width="1855" inkscape:window-x="65" inkscape:window-y="24" inkscape:zoom="1.979899" pagecolor="#ff00ff" showgrid="false" units="px">
	</sodipodi:namedview>
<g>
	<g>
		<path class="st0" d="M14.1,19.3H4.7c-0.6,0-1.2-0.5-1.2-1.2V6.9c0-0.6,0.5-1.2,1.2-1.2h9.4c0.6,0,1.2,0.5,1.2,1.2v11.2
			C15.2,18.8,14.7,19.3,14.1,19.3z"/>
		<path class="st0" d="M7.3,14.1l10.9,8.5c1.4,1.1,3.4,0.1,3.4-1.6V4c0-1.7-2-2.7-3.4-1.6L7.3,10.9C6.2,11.7,6.2,13.3,7.3,14.1z"/>
	</g>
	<g>
		<line class="st1" x1="7.3" y1="7.6" x2="17" y2="17.4"/>
		<line class="st1" x1="7.3" y1="17.4" x2="17" y2="7.6"/>
	</g>
</g>
</svg>
